<svg xmlns="http://www.w3.org/2000/svg" viewBox="0 0 801.54 1521.01"><defs><style>.cls-1{fill:#e3e5e4;}.cls-2{fill:#17c194;}.cls-3{fill:#04845f;}.cls-4,.cls-9{font-size:90.63px;}.cls-10,.cls-4,.cls-9{font-family:TWKEverett-Bold, TWK Everett;font-weight:700;}.cls-5{letter-spacing:-0.01em;}.cls-6{letter-spacing:-0.01em;}.cls-7{letter-spacing:0em;}.cls-8{letter-spacing:0em;}.cls-9{fill:#fff;}.cls-10{font-size:62.48px;}.cls-11{letter-spacing:-0.01em;}.cls-12{letter-spacing:-0.01em;}.cls-13{letter-spacing:-0.01em;}.cls-14{letter-spacing:-0.01em;}.cls-15{letter-spacing:-0.01em;}.cls-16{letter-spacing:-0.01em;}.cls-17{letter-spacing:0em;}</style></defs><g id="Capa_2" data-name="Capa 2"><g id="Capa_1-2" data-name="Capa 1"><rect class="cls-1" width="801.54" height="1521.01" rx="33.17"/><polygon class="cls-2" points="451.85 1440.21 334.84 1394.24 334.84 1277.22 451.85 1318.32 451.85 1440.21"/><rect class="cls-2" x="445.61" y="1201.06" width="117.02" height="117.02"/><rect class="cls-3" x="562.63" y="1318.08" width="107.27" height="128.34"/><polygon class="cls-2" points="562.63 1201.06 669.89 1318.08 669.89 1197.06 562.63 1201.06"/><polygon class="cls-3" points="445.61 1208.07 328.59 1283.47 256.85 1189.17 377.35 1116.3 445.61 1208.07"/><polygon class="cls-2" points="669.89 1446.41 758.22 1382.24 758.22 1446.41 669.89 1446.41"/><polygon class="cls-2" points="669.89 1374.14 758.22 1382.24 758.22 1289.04 693.2 1289.04 669.89 1374.14"/><polygon class="cls-3" points="693.2 1289.04 669.89 1246.02 758.22 1205.86 758.22 1247.45 693.2 1289.04"/><polygon class="cls-3" points="335.12 1393.06 330.39 1440.21 227.13 1440.21 335.12 1393.06"/><rect class="cls-2" x="117.59" y="1310.43" width="107.27" height="128.34" transform="translate(342.45 2749.2) rotate(-180)"/><polygon class="cls-2" points="224.86 1193.41 117.59 1310.43 117.59 1189.41 224.86 1193.41"/><polygon class="cls-2" points="117.59 1438.77 29.26 1374.6 29.26 1438.77 117.59 1438.77"/><polygon class="cls-3" points="117.59 1366.49 29.26 1374.6 29.26 1281.4 94.28 1281.4 117.59 1366.49"/><polygon class="cls-2" points="94.28 1281.4 117.59 1238.37 29.26 1198.21 29.26 1239.81 94.28 1281.4"/><polygon class="cls-2" points="227.03 1310.79 204.29 1270.73 290.46 1233.35 290.46 1272.07 227.03 1310.79"/><polygon class="cls-3" points="332.03 63.07 448.77 106.6 450.8 222.54 334.14 183.85 332.03 63.07"/><rect class="cls-3" x="225.38" y="184.98" width="115.97" height="115.97" transform="translate(-4.2 4.99) rotate(-1)"/><rect class="cls-2" x="123.3" y="59.67" width="106.3" height="127.18" transform="matrix(1, -0.02, 0.02, 1, -2.13, 3.1)"/><polygon class="cls-2" points="226.41 301.95 118.1 187.86 120.19 307.78 226.41 301.95"/><polygon class="cls-2" points="345.08 295.08 460.76 217.64 534.14 310.67 414.93 385.64 345.08 295.08"/><polygon class="cls-2" points="115.87 60.7 29.46 125.81 28.35 62.23 115.87 60.7"/><polygon class="cls-3" points="117.13 132.31 29.46 125.81 31.08 218.16 95.5 217.03 117.13 132.31"/><polygon class="cls-2" points="95.5 217.03 119.34 259.26 32.52 300.58 31.8 259.37 95.5 217.03"/><polygon class="cls-2" points="452.32 108.18 456.23 60.96 559.47 59.15 452.32 108.18"/><rect class="cls-2" x="562.88" y="59.61" width="107.27" height="128.34" transform="matrix(1, -0.02, 0.02, 1, -2.07, 10.79)"/><polygon class="cls-3" points="566.05 305.87 671.26 187 673.37 308 566.05 305.87"/><polygon class="cls-3" points="669.02 58.68 758.45 121.3 757.33 57.14 669.02 58.68"/><polygon class="cls-2" points="670.28 130.95 758.45 121.3 760.08 214.49 695.07 215.62 670.28 130.95"/><polygon class="cls-2" points="695.07 215.62 672.52 259.05 761.53 297.65 760.81 256.07 695.07 215.62"/><polygon class="cls-3" points="564.71 189.34 588.77 231.95 503.9 272.34 500.43 232.06 564.71 189.34"/><text class="cls-4" transform="translate(53.15 519.09)">Desar<tspan class="cls-5" x="272.7" y="0">r</tspan><tspan x="309.49" y="0">ollo</tspan><tspan class="cls-6" x="475.89" y="0"> </tspan><tspan class="cls-7" x="496.01" y="0">w</tspan><tspan class="cls-8" x="578.84" y="0">eb</tspan></text><text class="cls-9" transform="translate(319.26 738.35)">&lt;/&gt;</text><text class="cls-10" transform="translate(74.84 855.39)">Sopor<tspan class="cls-11" x="191.12" y="0">t</tspan><tspan x="216.68" y="0">e</tspan><tspan class="cls-12" x="255.41" y="0"> </tspan><tspan class="cls-13" x="269.16" y="0">y</tspan><tspan x="306.02" y="0" xml:space="preserve"> desar</tspan><tspan class="cls-14" x="500.39" y="0">r</tspan><tspan x="525.76" y="0">ollo </tspan><tspan x="31.21" y="74.98">de aplic</tspan><tspan class="cls-15" x="278.44" y="74.98">a</tspan><tspan x="316.49" y="74.98">ti</tspan><tspan class="cls-14" x="360.1" y="74.98">v</tspan><tspan x="397.58" y="74.98">os</tspan><tspan class="cls-16" x="473" y="74.98"> </tspan><tspan class="cls-17" x="486.87" y="74.98">w</tspan><tspan x="543.97" y="74.98">eb</tspan></text></g></g></svg>