<svg xmlns="http://www.w3.org/2000/svg" viewBox="0 0 505.41 114.66"><defs><style>.cls-1,.cls-5{fill:#fff;}.cls-2,.cls-6{fill:#00eab8;}.cls-3,.cls-7{fill:#b6bab9;}.cls-4{stroke:#fff;stroke-miterlimit:10;stroke-width:4px;}.cls-4,.cls-5,.cls-6,.cls-7{fill-rule:evenodd;}.cls-8{fill:#04845f;}</style></defs><g id="Capa_2" data-name="Capa 2"><g id="Capa_1-2" data-name="Capa 1"><path class="cls-1" d="M132.51,59.87a21.28,21.28,0,0,1-8.24-8.55,26.66,26.66,0,0,1-3-12.92,26.7,26.7,0,0,1,3-12.93,21.28,21.28,0,0,1,8.24-8.55,23.65,23.65,0,0,1,11.93-3A24.88,24.88,0,0,1,154.68,16a20.35,20.35,0,0,1,7.68,5.87,22.17,22.17,0,0,1,4.3,9h-10.3a15.24,15.24,0,0,0-4.43-6.68,12.72,12.72,0,0,0-14.42-.37,12.94,12.94,0,0,0-4.56,5.8,22.35,22.35,0,0,0-1.63,8.75A21.29,21.29,0,0,0,133,47.14a13.58,13.58,0,0,0,4.68,5.8A11.65,11.65,0,0,0,144.5,55a12.86,12.86,0,0,0,7.8-2.37,13,13,0,0,0,4.62-6.87h10.31Q165,54.3,159,58.5a24.49,24.49,0,0,1-14.48,4.25,23.32,23.32,0,0,1-11.8-3Z"/><path class="cls-1" d="M179.09,60.56a15.34,15.34,0,0,1-6.18-6.24,19.13,19.13,0,0,1-2.12-9.18A19.24,19.24,0,0,1,173,36a15.51,15.51,0,0,1,6.18-6.31,20.72,20.72,0,0,1,18.74,0,15.31,15.31,0,0,1,6.18,6.25,19.21,19.21,0,0,1,2.18,9.18,19.13,19.13,0,0,1-2.12,9.18A15.34,15.34,0,0,1,198,60.5a20.61,20.61,0,0,1-18.73,0Zm17.3-15.42c0-3.5-.69-6.24-2.06-8.24a7.24,7.24,0,0,0-11.74,0c-1.37,2-2.06,4.74-2.06,8.24s.69,6.24,2.06,8.24a7.24,7.24,0,0,0,11.74,0C195.7,51.38,196.39,48.64,196.39,45.14Z"/><path class="cls-1" d="M245.47,14.67V62.12H236V55.25a11.86,11.86,0,0,1-11.24,7.56,12.37,12.37,0,0,1-7.31-2.25,14.87,14.87,0,0,1-4.93-6.3,22.38,22.38,0,0,1-1.75-9.12A22.38,22.38,0,0,1,212.56,36a15.54,15.54,0,0,1,4.93-6.37,12,12,0,0,1,7.31-2.31A11.5,11.5,0,0,1,230,28.47a10.55,10.55,0,0,1,3.75,3.06A14.2,14.2,0,0,1,236,35.84V14.54ZM234.29,53.38c1.37-2,2.06-4.74,2.06-8.24s-.69-6.24-2.06-8.24a6.77,6.77,0,0,0-5.93-3,6.67,6.67,0,0,0-5.87,3c-1.37,2-2.06,4.74-2.06,8.3s.69,6.25,2.06,8.24a6.67,6.67,0,0,0,5.87,3,6.77,6.77,0,0,0,5.93-3Z"/><path class="cls-1" d="M261.52,47.89A10.82,10.82,0,0,0,264,54.13,6.5,6.5,0,0,0,269,56.25a7.5,7.5,0,0,0,4.18-1.06,6.87,6.87,0,0,0,2.5-3.18h9.62a14.39,14.39,0,0,1-5.94,8.05A18.91,18.91,0,0,1,269,62.81a17.88,17.88,0,0,1-9.06-2.25,15.49,15.49,0,0,1-6-6.3,19.13,19.13,0,0,1-2.13-9.18,19.1,19.1,0,0,1,2.19-9.18A15.41,15.41,0,0,1,260,29.65a17.87,17.87,0,0,1,9-2.24,17.56,17.56,0,0,1,9,2.24,15,15,0,0,1,5.93,6.25A20.17,20.17,0,0,1,286,45.26a19.15,19.15,0,0,1-.19,2.63Zm2.49-12a9.57,9.57,0,0,0-2.49,5.74h14.79A9.31,9.31,0,0,0,273.94,36a6.65,6.65,0,0,0-5-2.06,6.81,6.81,0,0,0-4.87,1.87Z"/><path class="cls-2" d="M300.16,60.69A15.27,15.27,0,0,1,294,54.44a19.6,19.6,0,0,1-2.18-9.36A18.54,18.54,0,0,1,294,35.84a15.83,15.83,0,0,1,6.24-6.25,20.15,20.15,0,0,1,17.05-.68A14.84,14.84,0,0,1,326,40.27h-9.62A9.81,9.81,0,0,0,314,35.59a5.92,5.92,0,0,0-4.5-1.81,6.61,6.61,0,0,0-5.8,3q-2.07,3-2.07,8.24c0,3.56.69,6.31,2.07,8.31a6.59,6.59,0,0,0,5.74,3c3.68,0,6.12-2.13,7.24-6.31h9.62a16.15,16.15,0,0,1-3.19,6.93,14.59,14.59,0,0,1-5.87,4.37,20,20,0,0,1-7.86,1.5,18.47,18.47,0,0,1-9.18-2.25Z"/><path class="cls-2" d="M341.37,36.9A13.49,13.49,0,0,1,345.24,30a10.48,10.48,0,0,1,7.43-2.63v9.37h-2.44c-3.06,0-5.3.56-6.74,1.75s-2.12,3.18-2.12,6V62h-9.56V28.09h9.5V37Z"/><path class="cls-2" d="M380.89,29.28A12,12,0,0,1,386.14,34a13.3,13.3,0,0,1,1.75,6.87V62.19h-9.43V55.82a13.29,13.29,0,0,1-4.25,5.24,11.94,11.94,0,0,1-7,1.87,12.83,12.83,0,0,1-6-1.43,11,11,0,0,1-4.31-3.94,10.57,10.57,0,0,1-1.56-5.74c0-3.5,1.31-6,3.94-7.49a24.74,24.74,0,0,1,10.11-2.81l8.93-.88v-.56a6.2,6.2,0,0,0-1.56-4.43,5.9,5.9,0,0,0-4.5-1.69A6.36,6.36,0,0,0,368,35.27a5,5,0,0,0-1.87,3.25h-9.62a11.8,11.8,0,0,1,2.56-6,12.8,12.8,0,0,1,5.43-3.81,21,21,0,0,1,7.68-1.31,19.68,19.68,0,0,1,8.62,1.68Zm-6,26.66a7.37,7.37,0,0,0,2.56-3.37,13.33,13.33,0,0,0,.87-4.87V46.33l-5.43.56a25.66,25.66,0,0,0-4.06.75,6,6,0,0,0-2.62,1.5A3.79,3.79,0,0,0,365.16,52a5.21,5.21,0,0,0,.75,2.8A4.93,4.93,0,0,0,368,56.63a6.45,6.45,0,0,0,2.93.62A6.75,6.75,0,0,0,375,56Z"/><path class="cls-2" d="M440.4,61.94H435a15.11,15.11,0,0,1-6-1.13,9.2,9.2,0,0,1-4.12-3.37,9.84,9.84,0,0,1-1.5-5.56V35H407.68V61.94h-9.55V35H392V28h6.12V24.66a9.84,9.84,0,0,1,1.5-5.56,9.14,9.14,0,0,1,4.12-3.37,15.2,15.2,0,0,1,6.06-1.12h5.49v6.8h-3.37a4.94,4.94,0,0,0-3.19.88,3.7,3.7,0,0,0-1,3v2.81h15.68v-8H433v8h7.49v7H433V51.2a3.68,3.68,0,0,0,1.06,3,5,5,0,0,0,3.19.81h3.31Z"/><path class="cls-2" d="M453.89,47.89a10.82,10.82,0,0,0,2.44,6.24,6.48,6.48,0,0,0,5.05,2.12,7.53,7.53,0,0,0,4.19-1.06A6.85,6.85,0,0,0,468.06,52h9.62a14.33,14.33,0,0,1-5.93,8.05,18.94,18.94,0,0,1-10.43,2.75,17.85,17.85,0,0,1-9.05-2.25,15.51,15.51,0,0,1-6.06-6.3,19.13,19.13,0,0,1-2.12-9.18,19.21,19.21,0,0,1,2.18-9.18,15.54,15.54,0,0,1,6.12-6.25,17.9,17.9,0,0,1,9-2.24,17.54,17.54,0,0,1,9,2.24,15,15,0,0,1,5.94,6.25,20.3,20.3,0,0,1,2.06,9.36,20.87,20.87,0,0,1-.19,2.63Zm2.5-12a9.64,9.64,0,0,0-2.5,5.74h14.8A9.31,9.31,0,0,0,466.32,36a6.66,6.66,0,0,0-5-2.06,6.83,6.83,0,0,0-4.87,1.87Z"/><path class="cls-2" d="M494.1,36.9A13.5,13.5,0,0,1,498,30a10.48,10.48,0,0,1,7.43-2.63v9.37H503c-3.06,0-5.31.56-6.74,1.75s-2.13,3.18-2.13,6V62h-9.55V28.09H494V37Z"/><path class="cls-3" d="M128.47,109.4a10,10,0,0,1-4.36-7.11h8.29a4.09,4.09,0,0,0,1.94,2.91,7.32,7.32,0,0,0,3.72.92,8.68,8.68,0,0,0,4.14-.81,2.49,2.49,0,0,0,1.46-2.26,2.52,2.52,0,0,0-.49-1.56,3.84,3.84,0,0,0-1.61-1.13,19.15,19.15,0,0,0-3.13-1l-5.17-1.13a13.53,13.53,0,0,1-6.46-2.91,6.76,6.76,0,0,1-2.15-5.22,7.49,7.49,0,0,1,1.72-4.8A11,11,0,0,1,131,82.1,17.73,17.73,0,0,1,137.41,81a18.78,18.78,0,0,1,6.19,1,12.57,12.57,0,0,1,4.74,2.8,9.3,9.3,0,0,1,2.59,4.63h-8.3a3.81,3.81,0,0,0-1.88-2.1,6.88,6.88,0,0,0-3.23-.75,7.53,7.53,0,0,0-3.5.75,2.3,2.3,0,0,0-1.4,2,2,2,0,0,0,1.13,1.83,13.69,13.69,0,0,0,3.61,1.18l5.17,1.13a14.24,14.24,0,0,1,6.78,3.13,8.06,8.06,0,0,1,.43,10.6,11.11,11.11,0,0,1-4.9,3.23,20.8,20.8,0,0,1-7.11,1.14,16.21,16.21,0,0,1-9.2-2.43Z"/><path class="cls-3" d="M173.65,110.86H169a13.17,13.17,0,0,1-5.22-1,7.94,7.94,0,0,1-3.56-2.91,8.5,8.5,0,0,1-1.29-4.79V87.65h-5.44v-6H159V74.73h8.24v6.89h6.41v6h-6.41v13.89a3.21,3.21,0,0,0,.86,2.59,4.34,4.34,0,0,0,2.75.69h2.85Z"/><path class="cls-3" d="M205.47,81.51v29.24h-8.13V105a10.68,10.68,0,0,1-3.39,4.68,9.17,9.17,0,0,1-5.87,1.78c-3.23,0-5.65-1-7.27-3.07a13,13,0,0,1-2.42-8.24V81.62h8.24V98.36c0,4.9,1.77,7.38,5.27,7.38s5.23-2.48,5.23-7.48V81.62Z"/><path class="cls-3" d="M240.8,70V111h-8.13V105a10.24,10.24,0,0,1-9.7,6.52,10.67,10.67,0,0,1-6.3-1.94,12.83,12.83,0,0,1-4.25-5.44,21.21,21.21,0,0,1,0-15.72,13.27,13.27,0,0,1,4.25-5.5,10.37,10.37,0,0,1,6.3-2,9.86,9.86,0,0,1,4.47,1,9,9,0,0,1,3.23,2.64,12.3,12.3,0,0,1,1.94,3.71V69.93Zm-9.64,33.39a12.46,12.46,0,0,0,1.77-7.11,12.42,12.42,0,0,0-1.77-7.11A5.86,5.86,0,0,0,226,86.63,5.77,5.77,0,0,0,221,89.21a12.48,12.48,0,0,0-1.78,7.16,12.42,12.42,0,0,0,1.78,7.11,5.77,5.77,0,0,0,5.06,2.58,5.86,5.86,0,0,0,5.12-2.58Z"/><path class="cls-3" d="M247.58,77.69V69.93h8.51v7.76Zm.11,33.17V81.62h8.24v29.24Z"/><path class="cls-3" d="M268.37,109.62a13.18,13.18,0,0,1-5.33-5.39,17.81,17.81,0,0,1,0-15.83A13.42,13.42,0,0,1,268.42,83a17.86,17.86,0,0,1,16.15,0,13.12,13.12,0,0,1,5.33,5.39,17.77,17.77,0,0,1,.06,15.83,13.21,13.21,0,0,1-5.33,5.38,17.78,17.78,0,0,1-16.15,0Zm14.91-13.3a12.42,12.42,0,0,0-1.77-7.11,6.26,6.26,0,0,0-10.13,0,12.42,12.42,0,0,0-1.77,7.11,12.46,12.46,0,0,0,1.77,7.11,6.26,6.26,0,0,0,10.13,0A12.46,12.46,0,0,0,283.28,96.32Z"/><path class="cls-4" d="M60.47,110.83c-7.71,4.1-13,0-13,0L4.52,87.41a4.35,4.35,0,0,1-2.39-3.94L2,32a4.38,4.38,0,0,1,2.38-4L52.57,2.54a4.36,4.36,0,0,1,4.16,0l48.32,25.27a4.38,4.38,0,0,1,2.39,3.95l.13,51.47a4.35,4.35,0,0,1-2.38,4Zm4.24-89v2.52l22.8,11.92a4.47,4.47,0,0,1,0,7.9L64.8,56.2v2.52L94.08,43.23l0-6.07L64.71,21.82Zm-19.94,37V56.25L22,44.33a4.47,4.47,0,0,1,0-7.91l22.73-12V21.87L15.41,37.36v6.07Z"/><polygon class="cls-5" points="101.63 33.17 77.92 20.87 60.22 11.7 60.26 25.22 87.49 39.34 60.33 53.6 60.36 67.13 78.01 57.87 101.66 45.45 101.63 33.17"/><polygon class="cls-6" points="50.6 24.8 50.57 11.45 31.97 20.6 7.05 32.85 7.08 44.97 32.06 57.1 50.71 66.15 50.67 52.8 21.98 38.87 50.6 24.8"/><polygon class="cls-7" points="87.49 39.34 101.63 33.17 60.22 11.7 60.26 25.22 87.49 39.34"/><polyline class="cls-8" points="7.08 44.63 50.71 67.89 50.67 53.24 7.05 31.32"/><rect class="cls-3" x="0.09" y="31.33" width="4.04" height="52.73"/><path class="cls-3" d="M4.23,84.06H.09a6.15,6.15,0,0,0,.4,1.82A6.49,6.49,0,0,0,2,88.21c.92-1,2-2,2.9-2.94-.14-.2-.43-.38-.57-.6S4.35,84.26,4.23,84.06Z"/><polyline class="cls-3" points="4.94 85.27 2.04 88.21 47.72 113.39 48.88 109.44"/></g></g></svg>