<svg xmlns="http://www.w3.org/2000/svg" xmlns:xlink="http://www.w3.org/1999/xlink" viewBox="0 0 812.05 466.06"><defs><style>.cls-1{fill:url(#linear-gradient);}.cls-2{fill:url(#linear-gradient-2);}.cls-3{fill:url(#linear-gradient-3);}.cls-4{fill:url(#linear-gradient-4);}.cls-5{fill:url(#linear-gradient-5);}.cls-6{fill:url(#linear-gradient-6);}.cls-7{fill:url(#linear-gradient-7);}.cls-8{fill:url(#linear-gradient-8);}.cls-9{fill:url(#linear-gradient-9);}.cls-10{fill:#131313;}</style><linearGradient id="linear-gradient" x1="406.03" y1="466.06" x2="406.03" y2="452.62" gradientUnits="userSpaceOnUse"><stop offset="0" stop-color="#575554"/><stop offset="0.46" stop-color="#575554"/><stop offset="1" stop-color="#131313"/></linearGradient><linearGradient id="linear-gradient-2" x1="-3532.85" y1="450.93" x2="-3194.83" y2="450.93" gradientTransform="matrix(-1, 0, 0, 1, -3194.83, 0)" gradientUnits="userSpaceOnUse"><stop offset="0" stop-color="#767676"/><stop offset="0" stop-color="#6e6e6e"/><stop offset="0" stop-color="#585858"/><stop offset="0.01" stop-color="#4a4a4a"/><stop offset="0.01" stop-color="#454545"/><stop offset="0.01" stop-color="#484848"/><stop offset="0.02" stop-color="#525252"/><stop offset="0.02" stop-color="#5d5d5d"/><stop offset="0.03" stop-color="#7c7c7c"/><stop offset="0.4" stop-color="#838383"/><stop offset="0.41" stop-color="#838383"/><stop offset="0.94" stop-color="#6a6a6a"/><stop offset="0.96" stop-color="#484848"/><stop offset="0.97" stop-color="#383838"/><stop offset="0.98" stop-color="#3d3d3d"/><stop offset="0.99" stop-color="#4b4b4b"/><stop offset="0.99" stop-color="#636363"/><stop offset="1" stop-color="#7c7c7c"/></linearGradient><linearGradient id="linear-gradient-3" x1="473.99" y1="450.93" x2="812.01" y2="450.93" gradientUnits="userSpaceOnUse"><stop offset="0" stop-color="#505050"/><stop offset="0" stop-color="#484848"/><stop offset="0" stop-color="#323232"/><stop offset="0.01" stop-color="#242424"/><stop offset="0.01" stop-color="#1f1f1f"/><stop offset="0.01" stop-color="#222"/><stop offset="0.02" stop-color="#2c2c2c"/><stop offset="0.02" stop-color="#373737"/><stop offset="0.03" stop-color="#565656"/><stop offset="0.4" stop-color="#5e5e5e"/><stop offset="0.41" stop-color="#5e5e5e"/><stop offset="0.94" stop-color="#444"/><stop offset="0.96" stop-color="#222"/><stop offset="0.97" stop-color="#121212"/><stop offset="0.98" stop-color="#171717"/><stop offset="0.99" stop-color="#252525"/><stop offset="0.99" stop-color="#3d3d3d"/><stop offset="1" stop-color="#565656"/></linearGradient><linearGradient id="linear-gradient-4" x1="338.02" y1="451.12" x2="473.99" y2="451.12" gradientUnits="userSpaceOnUse"><stop offset="0" stop-color="#565656"/><stop offset="0.06" stop-color="#444"/><stop offset="0.51" stop-color="#565656"/><stop offset="0.94" stop-color="#444"/><stop offset="1" stop-color="#565656"/></linearGradient><linearGradient id="linear-gradient-5" x1="-3532.85" y1="450.23" x2="-3194.83" y2="450.23" gradientTransform="matrix(-1, 0, 0, 1, -3194.83, 0)" gradientUnits="userSpaceOnUse"><stop offset="0" stop-color="#a7a7a7"/><stop offset="0" stop-color="#8e8e8e"/><stop offset="0" stop-color="#6f6f6f"/><stop offset="0.01" stop-color="#585858"/><stop offset="0.01" stop-color="#4a4a4a"/><stop offset="0.01" stop-color="#454545"/><stop offset="0.01" stop-color="#484848"/><stop offset="0.01" stop-color="#525252"/><stop offset="0.02" stop-color="#636363"/><stop offset="0.02" stop-color="#757575"/><stop offset="0.03" stop-color="#6b6968"/><stop offset="0.4" stop-color="#6b6968"/><stop offset="0.41" stop-color="#6b6968"/><stop offset="0.94" stop-color="#8d8d8d"/><stop offset="0.95" stop-color="#636363"/><stop offset="0.97" stop-color="#3b3b3b"/><stop offset="0.97" stop-color="#2b2b2b"/><stop offset="0.98" stop-color="#303030"/><stop offset="0.99" stop-color="#3e3e3e"/><stop offset="0.99" stop-color="#565554"/><stop offset="1" stop-color="#6b6968"/></linearGradient><linearGradient id="linear-gradient-6" x1="406.05" y1="446.01" x2="406.05" y2="2.89" gradientUnits="userSpaceOnUse"><stop offset="0" stop-color="#504e4e"/><stop offset="0.09" stop-color="#585656"/><stop offset="0.24" stop-color="#6e6b6b"/><stop offset="0.42" stop-color="#918e8e"/><stop offset="0.45" stop-color="#979494"/><stop offset="1" stop-color="#7b7878"/></linearGradient><linearGradient id="linear-gradient-7" x1="406.03" y1="23.13" x2="406.03" gradientUnits="userSpaceOnUse"><stop offset="0" stop-color="#1a1a1a"/><stop offset="0.28" stop-color="#1d1d1d"/><stop offset="0.45" stop-color="#252525"/><stop offset="0.59" stop-color="#333"/><stop offset="0.71" stop-color="#474747"/><stop offset="0.82" stop-color="#626262"/><stop offset="0.92" stop-color="#818181"/><stop offset="1" stop-color="#9f9f9f"/></linearGradient><linearGradient id="linear-gradient-8" x1="473.99" y1="450.23" x2="812.01" y2="450.23" gradientUnits="userSpaceOnUse"><stop offset="0" stop-color="#818181"/><stop offset="0" stop-color="#696969"/><stop offset="0" stop-color="#4a4a4a"/><stop offset="0.01" stop-color="#333"/><stop offset="0.01" stop-color="#252525"/><stop offset="0.01" stop-color="#202020"/><stop offset="0.01" stop-color="#232323"/><stop offset="0.01" stop-color="#2d2d2d"/><stop offset="0.02" stop-color="#3e3e3e"/><stop offset="0.02" stop-color="#4f4f4f"/><stop offset="0.03" stop-color="#6b6968"/><stop offset="0.4" stop-color="#6b6968"/><stop offset="0.41" stop-color="#6b6968"/><stop offset="0.94" stop-color="#686868"/><stop offset="0.95" stop-color="#4b4b4b"/><stop offset="0.96" stop-color="#232323"/><stop offset="0.97" stop-color="#131313"/><stop offset="0.98" stop-color="#181818"/><stop offset="0.98" stop-color="#262626"/><stop offset="0.99" stop-color="#3e3d3d"/><stop offset="1" stop-color="#605e5d"/><stop offset="1" stop-color="#6b6968"/></linearGradient><linearGradient id="linear-gradient-9" x1="338.02" y1="450.42" x2="473.99" y2="450.42" gradientUnits="userSpaceOnUse"><stop offset="0" stop-color="#838180"/><stop offset="0.06" stop-color="#6b6968"/><stop offset="0.51" stop-color="#838180"/><stop offset="0.94" stop-color="#6b6968"/><stop offset="1" stop-color="#838180"/></linearGradient></defs><g id="Capa_2" data-name="Capa 2"><g id="object"><path class="cls-1" d="M0,452.62a296.37,296.37,0,0,0,88.19,13.44H723.86a296.32,296.32,0,0,0,88.19-13.44H0Z"/><path class="cls-2" d="M0,447.79v4.83H327.33a41.74,41.74,0,0,1,9.57,1.2c.37.09.74.17,1.12.24v-6.27Z"/><path class="cls-3" d="M812,447.79v4.83H484.68a41.74,41.74,0,0,0-9.57,1.2c-.37.09-.74.17-1.12.24v-6.27Z"/><path class="cls-4" d="M474,447.79v6.27a23,23,0,0,1-4.23.4H342.25a23,23,0,0,1-4.23-.4v-6.27Z"/><path class="cls-5" d="M0,447.09v4.83H327.33a41.74,41.74,0,0,1,9.57,1.2c.37.09.74.17,1.12.24v-6.27Z"/><path class="cls-6" d="M717.85,2.89H94.29A20.24,20.24,0,0,0,74.06,23.13V446H77V20.23a17.61,17.61,0,0,1,.2-2.63c0-.29.09-.57.15-.85s.12-.56.19-.83.15-.56.24-.83a17.34,17.34,0,0,1,3.44-6.17c.18-.21.37-.42.56-.62s.19-.19.29-.29a17.82,17.82,0,0,1,2.91-2.35c.35-.22.71-.44,1.08-.64s.74-.38,1.12-.55h0l.77-.32h0a17.35,17.35,0,0,1,6.34-1.2H717.81A17.29,17.29,0,0,1,726.05,5c.36.2.72.42,1.07.64s.92.63,1.36,1h0l.64.52h0A12.2,12.2,0,0,1,730,8l.29.29c.2.2.38.41.56.62a17.21,17.21,0,0,1,4.23,11.31V446H738V21.86A20.24,20.24,0,0,0,717.85,2.89Z"/><path class="cls-7" d="M74,20.23A20.23,20.23,0,0,1,94.25,0H717.81A20.23,20.23,0,0,1,738,20.23v1.62a20.24,20.24,0,0,0-20.19-19H94.29A20.24,20.24,0,0,0,74.06,23.13Z"/><rect x="76.95" y="431.8" width="658.16" height="14.21"/><path class="cls-8" d="M812,447.09v4.83H484.68a41.74,41.74,0,0,0-9.57,1.2c-.37.09-.74.17-1.12.24v-6.27Z"/><path class="cls-9" d="M474,447.09v6.27a23,23,0,0,1-4.23.39H342.25a23,23,0,0,1-4.23-.39v-6.27Z"/><polygon class="cls-10" points="738.04 446.01 738.04 447.09 735.11 447.09 735.11 447.09 76.95 447.09 76.95 447.09 74.06 447.09 74.06 446.01 738.04 446.01"/><path d="M717.8,2.93H94.25A17.32,17.32,0,0,0,77,20.23V431.8H735.11V20.23A17.33,17.33,0,0,0,717.8,2.93Zm3.69,421H90.56V28.14H721.49Z"/></g></g></svg>